<svg width="1069" height="68" viewBox="0 0 1069 68" fill="none" xmlns="http://www.w3.org/2000/svg">
<mask id="mask0_17_271" style="mask-type:alpha" maskUnits="userSpaceOnUse" x="50" y="0" width="50" height="68">
<path d="M66 68L50 68L50 0H99.6055L66 68Z" fill="#D9D9D9"/>
</mask>
<g mask="url(#mask0_17_271)">
<rect x="55" y="4.44897" width="47.8272" height="13.3084" fill="#626262"/>
<rect x="55" y="27.323" width="44.5001" height="12.4767" fill="#626262"/>
</g>
<circle cx="63.3178" cy="57.6828" r="8.31778" fill="#626262"/>
<mask id="mask1_17_271" style="mask-type:alpha" maskUnits="userSpaceOnUse" x="103" y="0" width="53" height="68">
<path d="M137.5 0L155.605 0V68H103.895L137.5 0Z" fill="#D9D9D9"/>
</mask>
<g mask="url(#mask1_17_271)">
<path d="M113.394 4.44897H154.547V17.7574L106.998 17.518L113.394 4.44897Z" fill="#626262"/>
<rect x="106.72" y="49.4956" width="47.8272" height="13.3084" fill="#626262"/>
<rect x="106.72" y="27.323" width="44.5001" height="12.4767" fill="#626262"/>
</g>
<path d="M76.1329 67.7501L109.608 0H127.306L93.9914 67.7501H76.1329Z" fill="#626262"/>
<path d="M188.605 51.4306V13.57H194.573V51.4306H188.605ZM190.595 35.8537V30.2287H217.834V35.8537H190.595ZM191.368 19.195V13.57H220.32V19.195H191.368Z" fill="#626262"/>
<path d="M238.138 51.4306V13.57H260.737C263.02 13.57 265.102 14.0929 266.98 15.1386C268.896 16.1482 270.424 17.5364 271.566 19.3032C272.708 21.07 273.279 23.0352 273.279 25.1986C273.279 27.4703 272.653 29.5436 271.4 31.4186C270.148 33.2575 268.49 34.7359 266.428 35.8537C264.365 36.9354 262.1 37.4763 259.632 37.4763H244.106V51.4306H238.138ZM268.085 51.4306L254.935 34.3393L261.289 32.9871L275.544 51.4847L268.085 51.4306ZM244.106 31.8513H259.079C260.479 31.8513 261.768 31.5448 262.947 30.9318C264.162 30.3188 265.12 29.5075 265.82 28.4979C266.557 27.4883 266.925 26.3886 266.925 25.1986C266.925 24.0809 266.557 23.0712 265.82 22.1698C265.12 21.2684 264.162 20.5472 262.947 20.0063C261.768 19.4655 260.479 19.195 259.079 19.195H244.106V31.8513Z" fill="#626262"/>
<path d="M289.012 51.4306L307.908 13.57H314.87L333.656 51.4306H327.081L314.096 25.3609C313.765 24.6758 313.433 24.0087 313.102 23.3597C312.77 22.7107 312.439 22.0616 312.107 21.4126C311.813 20.7636 311.518 20.0785 311.223 19.3573C310.928 18.6361 310.634 17.8429 310.339 16.9775L312.107 16.9234C311.776 17.7888 311.444 18.6001 311.113 19.3573C310.818 20.1145 310.505 20.8357 310.173 21.5208C309.842 22.2059 309.51 22.891 309.179 23.576C308.847 24.2251 308.516 24.8922 308.184 25.5773L295.31 51.4306H289.012ZM297.244 42.5604L299.62 36.9354H322.55L323.489 42.5604H297.244Z" fill="#626262"/>
<path d="M367.064 51.9715C363.97 51.9715 361.06 51.5208 358.334 50.6193C355.646 49.6818 353.27 48.3657 351.207 46.671C349.181 44.9402 347.597 42.8849 346.455 40.5051C345.313 38.0893 344.742 35.421 344.742 32.5003C344.742 29.7239 345.332 27.1638 346.51 24.82C347.726 22.4763 349.365 20.439 351.428 18.7083C353.491 16.9775 355.867 15.6434 358.555 14.7059C361.244 13.7323 364.081 13.2455 367.064 13.2455C369.569 13.2455 371.963 13.57 374.247 14.2191C376.531 14.8321 378.594 15.6253 380.435 16.5989C382.314 17.5364 383.806 18.528 384.911 19.5736L381.375 24.4955C380.049 23.4138 378.631 22.4583 377.12 21.6289C375.61 20.7996 373.971 20.1506 372.203 19.6818C370.472 19.2131 368.575 18.9787 366.512 18.9787C364.56 18.9787 362.644 19.3032 360.766 19.9523C358.924 20.5652 357.248 21.4667 355.738 22.6566C354.227 23.8104 353.03 25.2347 352.146 26.9294C351.262 28.5881 350.82 30.445 350.82 32.5003C350.82 34.772 351.281 36.7732 352.201 38.5039C353.122 40.1986 354.375 41.6229 355.959 42.7768C357.543 43.9306 359.329 44.814 361.318 45.427C363.307 46.0039 365.37 46.2924 367.506 46.2924C369.716 46.2924 371.687 46.022 373.418 45.4811C375.15 44.9042 376.697 44.2011 378.06 43.3717C379.422 42.5424 380.656 41.7311 381.762 40.9378L384.635 45.8056C383.603 46.6349 382.185 47.5364 380.38 48.5099C378.612 49.4835 376.586 50.3128 374.302 50.9979C372.055 51.647 369.643 51.9715 367.064 51.9715Z" fill="#626262"/>
<path d="M412.12 51.4306V19.195H397.423V13.57H433.116V19.195H418.087V51.4306H412.12Z" fill="#626262"/>
<path d="M441.411 56.5L464.175 11.5H471.579L448.87 56.5H441.411Z" fill="#626262"/>
<path d="M507.54 51.9715C504.115 51.9715 500.984 51.4847 498.147 50.5111C495.311 49.5015 492.843 48.1133 490.743 46.3465C488.644 44.5436 487.023 42.4703 485.881 40.1265C484.739 37.7467 484.168 35.2047 484.168 32.5003C484.168 29.796 484.739 27.272 485.881 24.9282C487.023 22.5484 488.644 20.4751 490.743 18.7083C492.843 16.9054 495.311 15.5172 498.147 14.5436C500.984 13.534 504.115 13.0292 507.54 13.0292C510.929 13.0292 514.042 13.534 516.878 14.5436C519.714 15.5172 522.182 16.9054 524.282 18.7083C526.381 20.4751 528.002 22.5484 529.144 24.9282C530.323 27.272 530.912 29.796 530.912 32.5003C530.912 35.2047 530.323 37.7467 529.144 40.1265C528.002 42.4703 526.381 44.5436 524.282 46.3465C522.182 48.1133 519.714 49.5015 516.878 50.5111C514.042 51.4847 510.929 51.9715 507.54 51.9715ZM507.54 46.2924C510.082 46.2924 512.402 45.9499 514.502 45.2648C516.602 44.5436 518.425 43.57 519.972 42.3441C521.519 41.0821 522.716 39.6217 523.563 37.9631C524.411 36.2684 524.834 34.4474 524.834 32.5003C524.834 30.5532 524.411 28.7503 523.563 27.0917C522.716 25.397 521.519 23.9366 519.972 22.7107C518.425 21.4486 516.602 20.4751 514.502 19.79C512.402 19.0688 510.082 18.7083 507.54 18.7083C504.999 18.7083 502.66 19.0688 500.523 19.79C498.424 20.4751 496.6 21.4486 495.053 22.7107C493.506 23.9366 492.309 25.397 491.462 27.0917C490.651 28.7503 490.246 30.5532 490.246 32.5003C490.246 34.4474 490.651 36.2684 491.462 37.9631C492.309 39.6217 493.506 41.0821 495.053 42.3441C496.6 43.57 498.424 44.5436 500.523 45.2648C502.66 45.9499 504.999 46.2924 507.54 46.2924Z" fill="#626262"/>
<path d="M548.016 51.4306V13.57H553.928L585.311 44.5616L584.98 45.0484C584.796 43.9667 584.63 42.8128 584.483 41.5869C584.372 40.3248 584.28 39.0448 584.206 37.7467C584.133 36.4126 584.059 35.0785 583.985 33.7443C583.949 32.3741 583.912 31.04 583.875 29.7419C583.875 28.4438 583.875 27.1998 583.875 26.0099V13.57H589.842V51.4306H583.82L552.823 21.5748L552.878 20.8176C552.952 21.4667 553.026 22.2419 553.099 23.1434C553.173 24.0448 553.265 25.0184 553.376 26.064C553.486 27.1097 553.578 28.1914 553.652 29.3092C553.762 30.391 553.836 31.4907 553.873 32.6085C553.947 33.6902 553.983 34.7179 553.983 35.6914V51.4306H548.016Z" fill="#626262"/>
<path d="M604.987 51.4306L623.883 13.57H630.845L649.63 51.4306H643.055L630.071 25.3609C629.74 24.6758 629.408 24.0087 629.077 23.3597C628.745 22.7107 628.414 22.0616 628.082 21.4126C627.787 20.7636 627.493 20.0785 627.198 19.3573C626.903 18.6361 626.609 17.8429 626.314 16.9775L628.082 16.9234C627.751 17.7888 627.419 18.6001 627.088 19.3573C626.793 20.1145 626.48 20.8357 626.148 21.5208C625.817 22.2059 625.485 22.891 625.154 23.576C624.822 24.2251 624.491 24.8922 624.159 25.5773L611.285 51.4306H604.987ZM613.219 42.5604L615.595 36.9354H638.525L639.464 42.5604H613.219Z" fill="#626262"/>
<path d="M664.78 51.4306V13.57H670.747V45.8056H696.605V51.4306H664.78Z" fill="#626262"/>
<path d="M775.246 53.5012V14.2937H811.158V23.4235H785.76V44.3715H811.988V53.5012H775.246ZM781.001 37.9302V29.3046H808.944V37.9302H781.001Z" fill="#626262"/>
<path d="M857.459 53.5012L842.076 35.8018L822.876 14.2937H836.654L851.428 31.265L871.293 53.5012H857.459ZM822.599 53.5012L841.025 32.1611L850.044 36.586L836.045 53.5012H822.599ZM852.756 35.2977L843.847 31.0409L857.183 14.2937H870.684L852.756 35.2977Z" fill="#626262"/>
<path d="M883.59 53.5012V14.2937H919.501V23.4235H894.103V44.3715H920.331V53.5012H883.59ZM889.344 37.9302V29.3046H917.288V37.9302H889.344Z" fill="#626262"/>
<path d="M959.273 54.0613C955.806 54.0613 952.578 53.5759 949.59 52.605C946.602 51.6342 943.983 50.2526 941.732 48.4602C939.482 46.6679 937.73 44.5208 936.476 42.019C935.222 39.5172 934.594 36.7353 934.594 33.6734C934.594 30.6488 935.222 27.8856 936.476 25.3838C937.767 22.882 939.519 20.7349 941.732 18.9426C943.946 17.1503 946.528 15.7687 949.479 14.7978C952.467 13.7896 955.676 13.2855 959.107 13.2855C961.579 13.2855 963.94 13.5469 966.19 14.0697C968.44 14.5924 970.543 15.3019 972.498 16.1981C974.453 17.0569 976.131 18.0464 977.533 19.1666L971.391 27.7923C970.506 27.0455 969.454 26.336 968.237 25.6639C967.02 24.9544 965.618 24.3943 964.032 23.9836C962.446 23.5355 960.601 23.3114 958.498 23.3114C956.949 23.3114 955.437 23.5355 953.961 23.9836C952.486 24.3943 951.121 25.0478 949.866 25.9439C948.649 26.8028 947.672 27.8856 946.934 29.1926C946.233 30.4995 945.882 32.0304 945.882 33.7854C945.882 35.5404 946.27 37.0714 947.044 38.3783C947.819 39.6852 948.87 40.7681 950.198 41.6269C951.563 42.4858 953.076 43.1392 954.736 43.5873C956.396 43.9981 958.111 44.2034 959.882 44.2034C961.984 44.2034 963.829 43.9234 965.415 43.3633C967.001 42.7658 968.385 42.075 969.565 41.2909C970.746 40.5067 971.797 39.7973 972.719 39.1625L977.81 47.6201C976.703 48.5163 975.191 49.4684 973.273 50.4766C971.391 51.4848 969.252 52.3437 966.854 53.0531C964.456 53.7252 961.929 54.0613 959.273 54.0613Z" fill="#626262"/>
<path d="M1001.3 59.4368C1006.61 56.3699 1011.59 50.9951 1014.22 46.9619C1016.86 42.9288 1018.17 38.5806 1018.17 33.9172C1018.17 29.2539 1016.86 24.9057 1014.22 20.8726C1011.59 16.8394 1006.61 11.3017 1001.3 8.23486M746.476 59.765C741.167 56.6982 736.191 51.3233 733.557 47.2901C730.922 43.257 729.605 38.9088 729.605 34.2455C729.605 29.5821 730.922 25.2339 733.557 21.2008C736.191 17.1676 741.167 11.6299 746.476 8.56308" stroke="#626262" stroke-width="5"/>
</svg>
