<svg width="971" height="68" viewBox="0 0 971 68" fill="none" xmlns="http://www.w3.org/2000/svg">
<mask id="mask0_17_271" style="mask-type:alpha" maskUnits="userSpaceOnUse" x="0" y="0" width="50" height="68">
<path d="M16 68L4.57764e-05 68L4.57764e-05 0H49.6055L16 68Z" fill="#D9D9D9"/>
</mask>
<g mask="url(#mask0_17_271)">
<rect x="5" y="4.44904" width="47.8272" height="13.3084" fill="#626262"/>
<rect x="5" y="27.3229" width="44.5001" height="12.4767" fill="#626262"/>
</g>
<circle cx="13.3178" cy="57.6828" r="8.31778" fill="#626262"/>
<mask id="mask1_17_271" style="mask-type:alpha" maskUnits="userSpaceOnUse" x="53" y="0" width="53" height="68">
<path d="M87.5 0L105.605 0V68H53.8945L87.5 0Z" fill="#D9D9D9"/>
</mask>
<g mask="url(#mask1_17_271)">
<path d="M63.3937 4.44904H104.547V17.7575L56.9982 17.5181L63.3937 4.44904Z" fill="#626262"/>
<rect x="56.7201" y="49.4956" width="47.8272" height="13.3084" fill="#626262"/>
<rect x="56.7201" y="27.3229" width="44.5001" height="12.4767" fill="#626262"/>
</g>
<path d="M26.1329 67.7501L59.6075 0H77.3058L43.9914 67.7501H26.1329Z" fill="#626262"/>
<path d="M138.605 51.4306V13.57H144.573V51.4306H138.605ZM140.595 35.8537V30.2287H167.834V35.8537H140.595ZM141.368 19.195V13.57H170.32V19.195H141.368Z" fill="#626262"/>
<path d="M188.138 51.4306V13.57H210.737C213.02 13.57 215.102 14.0929 216.98 15.1386C218.896 16.1482 220.424 17.5364 221.566 19.3032C222.708 21.07 223.279 23.0352 223.279 25.1986C223.279 27.4703 222.653 29.5436 221.4 31.4186C220.148 33.2575 218.49 34.7359 216.428 35.8537C214.365 36.9354 212.1 37.4763 209.632 37.4763H194.106V51.4306H188.138ZM218.085 51.4306L204.935 34.3393L211.289 32.9871L225.544 51.4847L218.085 51.4306ZM194.106 31.8513H209.079C210.479 31.8513 211.768 31.5448 212.947 30.9318C214.162 30.3188 215.12 29.5075 215.82 28.4979C216.557 27.4883 216.925 26.3886 216.925 25.1986C216.925 24.0809 216.557 23.0712 215.82 22.1698C215.12 21.2684 214.162 20.5472 212.947 20.0063C211.768 19.4655 210.479 19.195 209.079 19.195H194.106V31.8513Z" fill="#626262"/>
<path d="M239.012 51.4306L257.908 13.57H264.87L283.656 51.4306H277.081L264.096 25.3609C263.765 24.6758 263.433 24.0087 263.102 23.3597C262.77 22.7107 262.439 22.0616 262.107 21.4126C261.813 20.7636 261.518 20.0785 261.223 19.3573C260.928 18.6361 260.634 17.8429 260.339 16.9775L262.107 16.9234C261.776 17.7888 261.444 18.6001 261.113 19.3573C260.818 20.1145 260.505 20.8357 260.173 21.5208C259.842 22.2059 259.51 22.891 259.179 23.576C258.847 24.2251 258.516 24.8922 258.184 25.5773L245.31 51.4306H239.012ZM247.244 42.5604L249.62 36.9354H272.55L273.489 42.5604H247.244Z" fill="#626262"/>
<path d="M317.064 51.9715C313.97 51.9715 311.06 51.5208 308.334 50.6193C305.646 49.6818 303.27 48.3657 301.207 46.671C299.181 44.9402 297.597 42.8849 296.455 40.5051C295.313 38.0893 294.742 35.421 294.742 32.5003C294.742 29.7239 295.332 27.1638 296.51 24.82C297.726 22.4763 299.365 20.439 301.428 18.7083C303.491 16.9775 305.867 15.6434 308.555 14.7059C311.244 13.7323 314.081 13.2455 317.064 13.2455C319.569 13.2455 321.963 13.57 324.247 14.2191C326.531 14.8321 328.594 15.6253 330.435 16.5989C332.314 17.5364 333.806 18.528 334.911 19.5736L331.375 24.4955C330.049 23.4138 328.631 22.4583 327.12 21.6289C325.61 20.7996 323.971 20.1506 322.203 19.6818C320.472 19.2131 318.575 18.9787 316.512 18.9787C314.56 18.9787 312.644 19.3032 310.766 19.9523C308.924 20.5652 307.248 21.4667 305.738 22.6566C304.227 23.8104 303.03 25.2347 302.146 26.9294C301.262 28.5881 300.82 30.445 300.82 32.5003C300.82 34.772 301.281 36.7732 302.201 38.5039C303.122 40.1986 304.375 41.6229 305.959 42.7768C307.543 43.9306 309.329 44.814 311.318 45.427C313.307 46.0039 315.37 46.2924 317.506 46.2924C319.716 46.2924 321.687 46.022 323.418 45.4811C325.15 44.9042 326.697 44.2011 328.06 43.3717C329.422 42.5424 330.656 41.7311 331.762 40.9378L334.635 45.8056C333.603 46.6349 332.185 47.5364 330.38 48.5099C328.612 49.4835 326.586 50.3128 324.302 50.9979C322.055 51.647 319.643 51.9715 317.064 51.9715Z" fill="#626262"/>
<path d="M362.12 51.4306V19.195H347.423V13.57H383.116V19.195H368.087V51.4306H362.12Z" fill="#626262"/>
<path d="M391.411 56.5L414.175 11.5H421.579L398.87 56.5H391.411Z" fill="#626262"/>
<path d="M457.54 51.9715C454.115 51.9715 450.984 51.4847 448.147 50.5111C445.311 49.5015 442.843 48.1133 440.743 46.3465C438.644 44.5436 437.023 42.4703 435.881 40.1265C434.739 37.7467 434.168 35.2047 434.168 32.5003C434.168 29.796 434.739 27.272 435.881 24.9282C437.023 22.5484 438.644 20.4751 440.743 18.7083C442.843 16.9054 445.311 15.5172 448.147 14.5436C450.984 13.534 454.115 13.0292 457.54 13.0292C460.929 13.0292 464.042 13.534 466.878 14.5436C469.714 15.5172 472.182 16.9054 474.282 18.7083C476.381 20.4751 478.002 22.5484 479.144 24.9282C480.323 27.272 480.912 29.796 480.912 32.5003C480.912 35.2047 480.323 37.7467 479.144 40.1265C478.002 42.4703 476.381 44.5436 474.282 46.3465C472.182 48.1133 469.714 49.5015 466.878 50.5111C464.042 51.4847 460.929 51.9715 457.54 51.9715ZM457.54 46.2924C460.082 46.2924 462.402 45.9499 464.502 45.2648C466.602 44.5436 468.425 43.57 469.972 42.3441C471.519 41.0821 472.716 39.6217 473.563 37.9631C474.411 36.2684 474.834 34.4474 474.834 32.5003C474.834 30.5532 474.411 28.7503 473.563 27.0917C472.716 25.397 471.519 23.9366 469.972 22.7107C468.425 21.4486 466.602 20.4751 464.502 19.79C462.402 19.0688 460.082 18.7083 457.54 18.7083C454.999 18.7083 452.66 19.0688 450.523 19.79C448.424 20.4751 446.6 21.4486 445.053 22.7107C443.506 23.9366 442.309 25.397 441.462 27.0917C440.651 28.7503 440.246 30.5532 440.246 32.5003C440.246 34.4474 440.651 36.2684 441.462 37.9631C442.309 39.6217 443.506 41.0821 445.053 42.3441C446.6 43.57 448.424 44.5436 450.523 45.2648C452.66 45.9499 454.999 46.2924 457.54 46.2924Z" fill="#626262"/>
<path d="M498.016 51.4306V13.57H503.928L535.311 44.5616L534.98 45.0484C534.796 43.9667 534.63 42.8128 534.483 41.5869C534.372 40.3248 534.28 39.0448 534.206 37.7467C534.133 36.4126 534.059 35.0785 533.985 33.7443C533.949 32.3741 533.912 31.04 533.875 29.7419C533.875 28.4438 533.875 27.1998 533.875 26.0099V13.57H539.842V51.4306H533.82L502.823 21.5748L502.878 20.8176C502.952 21.4667 503.026 22.2419 503.099 23.1434C503.173 24.0448 503.265 25.0184 503.376 26.064C503.486 27.1097 503.578 28.1914 503.652 29.3092C503.762 30.391 503.836 31.4907 503.873 32.6085C503.947 33.6902 503.983 34.7179 503.983 35.6914V51.4306H498.016Z" fill="#626262"/>
<path d="M554.987 51.4306L573.883 13.57H580.845L599.63 51.4306H593.055L580.071 25.3609C579.74 24.6758 579.408 24.0087 579.077 23.3597C578.745 22.7107 578.414 22.0616 578.082 21.4126C577.787 20.7636 577.493 20.0785 577.198 19.3573C576.903 18.6361 576.609 17.8429 576.314 16.9775L578.082 16.9234C577.751 17.7888 577.419 18.6001 577.088 19.3573C576.793 20.1145 576.48 20.8357 576.148 21.5208C575.817 22.2059 575.485 22.891 575.154 23.576C574.822 24.2251 574.491 24.8922 574.159 25.5773L561.285 51.4306H554.987ZM563.219 42.5604L565.595 36.9354H588.525L589.464 42.5604H563.219Z" fill="#626262"/>
<path d="M614.78 51.4306V13.57H620.747V45.8056H646.605V51.4306H614.78Z" fill="#626262"/>
<path d="M725.246 53.5013V14.2938H761.158V23.4236H735.76V44.3716H761.988V53.5013H725.246ZM731.001 37.9303V29.3047H758.944V37.9303H731.001Z" fill="#626262"/>
<path d="M807.459 53.5013L792.076 35.8019L772.876 14.2938H786.654L801.428 31.2651L821.293 53.5013H807.459ZM772.599 53.5013L791.025 32.1612L800.044 36.5861L786.045 53.5013H772.599ZM802.756 35.2978L793.847 31.041L807.183 14.2938H820.684L802.756 35.2978Z" fill="#626262"/>
<path d="M833.59 53.5013V14.2938H869.501V23.4236H844.103V44.3716H870.331V53.5013H833.59ZM839.344 37.9303V29.3047H867.288V37.9303H839.344Z" fill="#626262"/>
<path d="M909.273 54.0614C905.806 54.0614 902.578 53.576 899.59 52.6051C896.602 51.6343 893.983 50.2527 891.732 48.4603C889.482 46.668 887.73 44.5209 886.476 42.0191C885.222 39.5173 884.594 36.7354 884.594 33.6735C884.594 30.6489 885.222 27.8857 886.476 25.3839C887.767 22.8821 889.519 20.735 891.732 18.9427C893.946 17.1504 896.528 15.7688 899.479 14.7979C902.467 13.7897 905.676 13.2856 909.107 13.2856C911.579 13.2856 913.94 13.547 916.19 14.0698C918.44 14.5925 920.543 15.302 922.498 16.1982C924.453 17.057 926.131 18.0465 927.533 19.1667L921.391 27.7924C920.506 27.0456 919.454 26.3361 918.237 25.664C917.02 24.9545 915.618 24.3944 914.032 23.9837C912.446 23.5356 910.601 23.3115 908.498 23.3115C906.949 23.3115 905.437 23.5356 903.961 23.9837C902.486 24.3944 901.121 25.0479 899.866 25.944C898.649 26.8029 897.672 27.8857 896.934 29.1927C896.233 30.4996 895.882 32.0305 895.882 33.7855C895.882 35.5405 896.27 37.0715 897.044 38.3784C897.819 39.6853 898.87 40.7682 900.198 41.627C901.563 42.4859 903.076 43.1393 904.736 43.5874C906.396 43.9981 908.111 44.2035 909.882 44.2035C911.984 44.2035 913.829 43.9235 915.415 43.3634C917.001 42.7659 918.385 42.0751 919.565 41.291C920.746 40.5068 921.797 39.7973 922.719 39.1626L927.81 47.6202C926.703 48.5163 925.191 49.4685 923.273 50.4767C921.391 51.4849 919.252 52.3437 916.854 53.0532C914.456 53.7253 911.929 54.0614 909.273 54.0614Z" fill="#626262"/>
<path d="M951.304 59.4369C956.613 56.37 961.589 50.9951 964.223 46.962C966.857 42.9288 968.174 38.5806 968.174 33.9173C968.174 29.254 966.857 24.9058 964.223 20.8726C961.589 16.8395 956.613 11.3018 951.304 8.23492M696.476 59.7651C691.167 56.6982 686.191 51.3233 683.557 47.2902C680.922 43.2571 679.605 38.9088 679.605 34.2455C679.605 29.5822 680.922 25.234 683.557 21.2008C686.191 17.1677 691.167 11.63 696.476 8.56314" stroke="#626262" stroke-width="5"/>
</svg>
