<svg width="520" height="25" viewBox="0 0 520 25" fill="none" xmlns="http://www.w3.org/2000/svg">
<mask id="mask0_135_165" style="mask-type:alpha" maskUnits="userSpaceOnUse" x="18" y="0" width="19" height="25">
<path d="M24.2647 25H18.3823V0H36.6196L24.2647 25Z" fill="#D9D9D9"/>
</mask>
<g mask="url(#mask0_135_165)">
<path d="M37.804 1.63562H20.2205V6.52841H37.804V1.63562Z" fill="#626262"/>
<path d="M36.5808 10.0452H20.2205V14.6322H36.5808V10.0452Z" fill="#626262"/>
</g>
<path d="M23.2787 24.2649C24.9676 24.2649 26.3367 22.8958 26.3367 21.2069C26.3367 19.518 24.9676 18.1489 23.2787 18.1489C21.5898 18.1489 20.2207 19.518 20.2207 21.2069C20.2207 22.8958 21.5898 24.2649 23.2787 24.2649Z" fill="#626262"/>
<mask id="mask1_135_165" style="mask-type:alpha" maskUnits="userSpaceOnUse" x="38" y="0" width="20" height="25">
<path d="M50.5516 0H57.2078V25H38.1968L50.5516 0Z" fill="#D9D9D9"/>
</mask>
<g mask="url(#mask1_135_165)">
<path d="M41.6891 1.63562H56.8189V6.52844L39.3376 6.44042L41.6891 1.63562Z" fill="#626262"/>
<path d="M56.8189 18.1969H39.2354V23.0897H56.8189V18.1969Z" fill="#626262"/>
<path d="M55.5957 10.0452H39.2354V14.6322H55.5957V10.0452Z" fill="#626262"/>
</g>
<path d="M27.99 24.9081L40.2967 0H46.8037L34.5556 24.9081H27.99Z" fill="#626262"/>
<path d="M72.9534 19.4852V5.58818H81.0732C81.8938 5.58818 82.6416 5.78009 83.3166 6.16391C84.0048 6.5345 84.5541 7.04406 84.9644 7.69259C85.3747 8.34112 85.5798 9.06244 85.5798 9.85656C85.5798 10.6904 85.3548 11.4514 84.9048 12.1396C84.4548 12.8146 83.8593 13.3573 83.1181 13.7676C82.3769 14.1646 81.5629 14.3632 80.6762 14.3632H75.0975V19.4852H72.9534ZM75.0975 12.2985H80.4776C80.9806 12.2985 81.4438 12.186 81.8673 11.961C82.3041 11.736 82.6482 11.4382 82.8997 11.0676C83.1644 10.697 83.2968 10.2933 83.2968 9.85656C83.2968 9.44627 83.1644 9.07568 82.8997 8.7448C82.6482 8.41391 82.3041 8.14921 81.8673 7.95068C81.4438 7.75215 80.9806 7.65288 80.4776 7.65288H75.0975V12.2985ZM92.0346 19.4852V17.361H95.6677V7.71244H92.0346V5.58818H101.445V7.71244H97.8118V17.361H101.445V19.4852H92.0346ZM113.446 19.4852L107.034 5.58818H109.456L113.168 13.8669C113.248 14.0521 113.374 14.3235 113.546 14.6808C113.718 15.0249 113.903 15.4154 114.102 15.8521C114.3 16.2889 114.492 16.7191 114.677 17.1426C114.863 17.5661 115.008 17.9433 115.114 18.2742L114.479 18.2941C114.624 17.897 114.81 17.4338 115.035 16.9044C115.273 16.3617 115.504 15.8257 115.729 15.2963C115.968 14.7536 116.166 14.2904 116.325 13.9066L119.76 5.58818H122.281L116.027 19.4852H113.446ZM134.448 19.6838C133.217 19.6838 132.092 19.5051 131.073 19.1477C130.054 18.7771 129.167 18.2676 128.413 17.6191C127.659 16.9573 127.076 16.1963 126.666 15.336C126.256 14.4624 126.05 13.5294 126.05 12.5367C126.05 11.5441 126.256 10.6176 126.666 9.7573C127.076 8.88377 127.659 8.12274 128.413 7.47421C129.167 6.81244 130.054 6.30288 131.073 5.94553C132.092 5.57494 133.217 5.38965 134.448 5.38965C135.666 5.38965 136.784 5.57494 137.803 5.94553C138.822 6.30288 139.709 6.81244 140.464 7.47421C141.218 8.12274 141.8 8.88377 142.211 9.7573C142.634 10.6176 142.846 11.5441 142.846 12.5367C142.846 13.5294 142.634 14.4624 142.211 15.336C141.8 16.1963 141.218 16.9573 140.464 17.6191C139.709 18.2676 138.822 18.7771 137.803 19.1477C136.784 19.5051 135.666 19.6838 134.448 19.6838ZM134.448 17.5992C135.361 17.5992 136.195 17.4735 136.95 17.222C137.704 16.9573 138.359 16.5999 138.915 16.1499C139.471 15.6867 139.901 15.1507 140.206 14.5419C140.51 13.9198 140.662 13.2514 140.662 12.5367C140.662 11.822 140.51 11.1602 140.206 10.5514C139.901 9.92935 139.471 9.39332 138.915 8.94332C138.359 8.48009 137.704 8.12274 136.95 7.87127C136.195 7.60656 135.361 7.47421 134.448 7.47421C133.535 7.47421 132.695 7.60656 131.927 7.87127C131.172 8.12274 130.517 8.48009 129.961 8.94332C129.406 9.39332 128.975 9.92935 128.671 10.5514C128.38 11.1602 128.234 11.822 128.234 12.5367C128.234 13.2514 128.38 13.9198 128.671 14.5419C128.975 15.1507 129.406 15.6867 129.961 16.1499C130.517 16.5999 131.172 16.9573 131.927 17.222C132.695 17.4735 133.535 17.5992 134.448 17.5992ZM152.044 19.4852V7.65288H146.763V5.58818H159.588V7.65288H154.188V19.4852H152.044ZM162.405 19.4852L169.195 5.58818H171.696L178.446 19.4852H176.084L171.418 9.91612C171.299 9.66465 171.18 9.4198 171.061 9.18156C170.942 8.94333 170.822 8.70509 170.703 8.46685C170.597 8.22862 170.492 7.97715 170.386 7.71244C170.28 7.44774 170.174 7.15656 170.068 6.83891L170.703 6.81906C170.584 7.13671 170.465 7.4345 170.346 7.71244C170.24 7.99038 170.128 8.25509 170.009 8.50656C169.889 8.75803 169.77 9.0095 169.651 9.26097C169.532 9.49921 169.413 9.74406 169.294 9.99553L164.668 19.4852H162.405ZM165.363 16.2294L166.217 14.1646H174.456L174.793 16.2294H165.363ZM183.89 19.4852V5.58818H186.034V17.4205H195.325V19.4852H183.89Z" fill="#626262"/>
<path d="M227.296 19.6696V5.25513H240.499V8.61167H231.162V16.3131H240.804V19.6696H227.296ZM229.412 13.9451V10.7738H239.685V13.9451H229.412Z" fill="#626262"/>
<path d="M257.522 19.6696L251.866 13.1625L244.807 5.25513H249.873L255.304 11.4946L262.608 19.6696H257.522ZM244.706 19.6696L251.48 11.8241L254.796 13.4508L249.649 19.6696H244.706ZM255.793 12.9772L252.517 11.4122L257.42 5.25513H262.384L255.793 12.9772Z" fill="#626262"/>
<path d="M267.129 19.6696V5.25513H280.331V8.61167H270.994V16.3131H280.636V19.6696H267.129ZM269.244 13.9451V10.7738H279.518V13.9451H269.244Z" fill="#626262"/>
<path d="M294.953 19.8755C293.679 19.8755 292.492 19.697 291.393 19.3401C290.295 18.9832 289.332 18.4752 288.504 17.8163C287.677 17.1573 287.033 16.368 286.572 15.4482C286.111 14.5284 285.88 13.5057 285.88 12.38C285.88 11.268 286.111 10.2521 286.572 9.33234C287.047 8.41252 287.691 7.62319 288.504 6.96422C289.318 6.30528 290.268 5.79734 291.353 5.44039C292.451 5.06973 293.631 4.8844 294.892 4.8844C295.801 4.8844 296.669 4.9805 297.496 5.17271C298.324 5.36491 299.097 5.62572 299.815 5.95521C300.534 6.27094 301.151 6.63477 301.667 7.04661L299.408 10.2178C299.083 9.94322 298.696 9.68238 298.249 9.43528C297.801 9.17444 297.286 8.96852 296.703 8.81752C296.12 8.65278 295.442 8.57043 294.668 8.57043C294.099 8.57043 293.543 8.65278 293 8.81752C292.458 8.96852 291.956 9.20877 291.495 9.53826C291.047 9.85399 290.688 10.2521 290.417 10.7326C290.159 11.2131 290.03 11.7759 290.03 12.4212C290.03 13.0664 290.173 13.6292 290.457 14.1097C290.742 14.5902 291.129 14.9883 291.617 15.3041C292.119 15.6198 292.675 15.86 293.285 16.0248C293.896 16.1758 294.526 16.2513 295.177 16.2513C295.95 16.2513 296.628 16.1483 297.211 15.9424C297.794 15.7227 298.303 15.4688 298.737 15.1805C299.171 14.8922 299.558 14.6314 299.897 14.398L301.768 17.5074C301.361 17.8369 300.806 18.187 300.1 18.5576C299.408 18.9283 298.622 19.244 297.74 19.5048C296.859 19.752 295.93 19.8755 294.953 19.8755Z" fill="#626262"/>
<path d="M310.406 21.8518C312.358 20.7243 314.187 18.7482 315.156 17.2655C316.124 15.7827 316.608 14.1841 316.608 12.4696C316.608 10.7552 316.124 9.15659 315.156 7.67379C314.187 6.19104 312.358 4.15512 310.406 3.02759M216.719 21.9725C214.767 20.845 212.938 18.8689 211.97 17.3861C211.001 15.9034 210.517 14.3047 210.517 12.5903C210.517 10.8759 211.001 9.27725 211.97 7.79446C212.938 6.3117 214.767 4.27578 216.719 3.14826" stroke="#626262" stroke-width="5"/>
<path d="M338.032 19.6838C337.105 19.6838 336.238 19.5845 335.431 19.386C334.624 19.1875 333.876 18.8963 333.187 18.5125C332.499 18.1154 331.877 17.6191 331.321 17.0235L332.274 15.733C333.108 16.6066 334.001 17.2419 334.954 17.6389C335.907 18.036 336.933 18.2345 338.032 18.2345C338.905 18.2345 339.699 18.1352 340.414 17.9367C341.129 17.725 341.704 17.4139 342.141 17.0036C342.578 16.5933 342.79 16.097 342.776 15.5147C342.776 15.1176 342.657 14.7933 342.419 14.5419C342.181 14.2904 341.87 14.0852 341.486 13.9264C341.115 13.7676 340.705 13.6485 340.255 13.5691C339.805 13.4764 339.375 13.4102 338.965 13.3705C338.554 13.3176 338.197 13.2713 337.893 13.2316C337.085 13.1125 336.324 12.9735 335.61 12.8147C334.895 12.6558 334.266 12.4375 333.724 12.1595C333.181 11.8816 332.757 11.5242 332.453 11.0875C332.148 10.6375 331.996 10.0816 331.996 9.41981C331.996 8.78451 332.142 8.22201 332.433 7.73231C332.737 7.2426 333.161 6.82569 333.704 6.48157C334.246 6.13745 334.875 5.87937 335.59 5.70731C336.318 5.53525 337.099 5.44922 337.932 5.44922C338.832 5.44922 339.646 5.54848 340.374 5.74701C341.115 5.93231 341.777 6.21025 342.36 6.58084C342.955 6.93819 343.458 7.38157 343.868 7.91098L342.856 9.06245C342.459 8.59922 342.002 8.20878 341.486 7.89113C340.983 7.56025 340.427 7.30878 339.818 7.13672C339.223 6.96466 338.587 6.87863 337.912 6.87863C337.118 6.87863 336.404 6.9779 335.768 7.17643C335.133 7.37495 334.624 7.64628 334.24 7.9904C333.869 8.33451 333.684 8.75142 333.684 9.24113C333.684 9.69113 333.81 10.0617 334.061 10.3529C334.312 10.6441 334.657 10.8757 335.093 11.0477C335.543 11.2198 336.06 11.3588 336.642 11.4647C337.224 11.5573 337.853 11.65 338.528 11.7426C339.229 11.822 339.924 11.9279 340.612 12.0602C341.314 12.1926 341.956 12.3845 342.538 12.636C343.121 12.8742 343.584 13.2117 343.928 13.6485C344.285 14.0852 344.464 14.6742 344.464 15.4154C344.464 16.2625 344.199 17.0102 343.67 17.6588C343.14 18.2941 342.393 18.7904 341.426 19.1477C340.474 19.5051 339.342 19.6838 338.032 19.6838ZM357.943 19.6838C356.712 19.6838 355.58 19.5051 354.548 19.1477C353.529 18.7772 352.642 18.2742 351.888 17.6389C351.147 16.9904 350.571 16.236 350.161 15.3757C349.75 14.5022 349.545 13.5691 349.545 12.5764C349.545 11.5705 349.75 10.6375 350.161 9.77716C350.571 8.91687 351.147 8.16245 351.888 7.51392C352.642 6.85216 353.529 6.3426 354.548 5.98525C355.58 5.6279 356.712 5.44922 357.943 5.44922C359.174 5.44922 360.299 5.6279 361.318 5.98525C362.337 6.3426 363.224 6.84554 363.978 7.49407C364.733 8.1426 365.315 8.90363 365.725 9.77716C366.149 10.6375 366.361 11.5705 366.361 12.5764C366.361 13.5691 366.149 14.5022 365.725 15.3757C365.315 16.236 364.733 16.9904 363.978 17.6389C363.224 18.2875 362.337 18.7904 361.318 19.1477C360.299 19.5051 359.174 19.6838 357.943 19.6838ZM357.943 18.1551C358.936 18.1551 359.849 18.0161 360.683 17.7382C361.517 17.4602 362.238 17.0698 362.847 16.5669C363.455 16.0507 363.925 15.4551 364.256 14.7801C364.587 14.1051 364.753 13.3705 364.753 12.5764C364.753 11.7823 364.587 11.0411 364.256 10.3529C363.925 9.66466 363.455 9.06907 362.847 8.56613C362.238 8.06319 361.517 7.67275 360.683 7.39481C359.849 7.10363 358.936 6.95804 357.943 6.95804C356.937 6.95804 356.017 7.10363 355.183 7.39481C354.35 7.67275 353.628 8.06319 353.019 8.56613C352.424 9.06907 351.961 9.66466 351.63 10.3529C351.312 11.0411 351.153 11.7823 351.153 12.5764C351.153 13.3705 351.312 14.1051 351.63 14.7801C351.961 15.4551 352.424 16.0507 353.019 16.5669C353.628 17.0698 354.35 17.4602 355.183 17.7382C356.017 18.0161 356.937 18.1551 357.943 18.1551ZM372.643 19.4852V5.58819H374.191V17.9764H383.643V19.4852H372.643ZM395.835 19.6242C394.456 19.6242 393.257 19.333 392.239 18.7507C391.221 18.1551 390.426 17.3477 389.857 16.3286C389.287 15.3095 389.004 14.1448 389.004 12.8345V5.58819H390.551V12.775C390.551 13.8073 390.783 14.7272 391.246 15.5345C391.71 16.3286 392.338 16.9507 393.132 17.4007C393.941 17.8507 394.842 18.0757 395.835 18.0757C396.893 18.0757 397.824 17.8507 398.632 17.4007C399.441 16.9507 400.07 16.3286 400.518 15.5345C400.982 14.7272 401.213 13.8073 401.213 12.775V5.58819H402.702V12.8544C402.702 14.1514 402.419 15.3095 401.849 16.3286C401.279 17.3477 400.478 18.1551 399.445 18.7507C398.426 19.333 397.224 19.6242 395.835 19.6242ZM413.537 19.4852V7.09701H408.176V5.58819H420.607V7.09701H415.085V19.4852H413.537ZM426.213 19.4852V17.9169H429.846V7.15657H426.213V5.58819H435.026V7.15657H431.393V17.9169H435.026V19.4852H426.213ZM449.434 19.6838C448.202 19.6838 447.07 19.5051 446.037 19.1477C445.018 18.7772 444.132 18.2742 443.379 17.6389C442.636 16.9904 442.062 16.236 441.651 15.3757C441.239 14.5022 441.037 13.5691 441.037 12.5764C441.037 11.5705 441.239 10.6375 441.651 9.77716C442.062 8.91687 442.636 8.16245 443.379 7.51392C444.132 6.85216 445.018 6.3426 446.037 5.98525C447.07 5.6279 448.202 5.44922 449.434 5.44922C450.665 5.44922 451.79 5.6279 452.809 5.98525C453.827 6.3426 454.713 6.84554 455.467 7.49407C456.224 8.1426 456.805 8.90363 457.217 9.77716C457.64 10.6375 457.849 11.5705 457.849 12.5764C457.849 13.5691 457.64 14.5022 457.217 15.3757C456.805 16.236 456.224 16.9904 455.467 17.6389C454.713 18.2875 453.827 18.7904 452.809 19.1477C451.79 19.5051 450.665 19.6838 449.434 19.6838ZM449.434 18.1551C450.426 18.1551 451.338 18.0161 452.173 17.7382C453.007 17.4602 453.728 17.0698 454.338 16.5669C454.945 16.0507 455.415 15.4551 455.746 14.7801C456.077 14.1051 456.243 13.3705 456.243 12.5764C456.243 11.7823 456.077 11.0411 455.746 10.3529C455.415 9.66466 454.945 9.06907 454.338 8.56613C453.728 8.06319 453.007 7.67275 452.173 7.39481C451.338 7.10363 450.426 6.95804 449.434 6.95804C448.426 6.95804 447.507 7.10363 446.673 7.39481C445.838 7.67275 445.118 8.06319 444.511 8.56613C443.915 9.06907 443.452 9.66466 443.121 10.3529C442.801 11.0411 442.643 11.7823 442.643 12.5764C442.643 13.3705 442.801 14.1051 443.121 14.7801C443.452 15.4551 443.915 16.0507 444.511 16.5669C445.118 17.0698 445.838 17.4602 446.673 17.7382C447.507 18.0161 448.426 18.1551 449.434 18.1551ZM464.132 19.4852V5.58819H465.721L477.673 17.7183L477.533 18.0757C477.482 17.7713 477.441 17.361 477.415 16.8448C477.401 16.3154 477.382 15.7463 477.357 15.1375C477.342 14.5286 477.331 13.9264 477.316 13.3308C477.316 12.7352 477.309 12.2058 477.298 11.7426C477.298 11.2661 477.298 10.9154 477.298 10.6904V5.58819H478.846V19.4852H477.199L465.364 7.61319L465.404 7.19628C465.419 7.36834 465.43 7.63304 465.445 7.9904C465.471 8.33451 465.496 8.73819 465.522 9.20142C465.551 9.65143 465.577 10.1213 465.603 10.611C465.629 11.1007 465.651 11.5705 465.662 12.0205C465.676 12.4705 465.684 12.8544 465.684 13.172V19.4852H464.132ZM491.853 19.6838C490.926 19.6838 490.059 19.5845 489.254 19.386C488.445 19.1875 487.699 18.8963 487.007 18.5125C486.32 18.1154 485.699 17.6191 485.143 17.0235L486.096 15.733C486.93 16.6066 487.824 17.2419 488.776 17.6389C489.728 18.036 490.754 18.2345 491.853 18.2345C492.728 18.2345 493.522 18.1352 494.235 17.9367C494.948 17.725 495.526 17.4139 495.963 17.0036C496.401 16.5933 496.61 16.097 496.599 15.5147C496.599 15.1176 496.478 14.7933 496.239 14.5419C496.004 14.2904 495.691 14.0852 495.309 13.9264C494.937 13.7676 494.526 13.6485 494.077 13.5691C493.625 13.4764 493.195 13.4102 492.787 13.3705C492.375 13.3176 492.018 13.2713 491.713 13.2316C490.908 13.1125 490.147 12.9735 489.43 12.8147C488.717 12.6558 488.088 12.4375 487.544 12.1595C487.004 11.8816 486.577 11.5242 486.276 11.0875C485.971 10.6375 485.816 10.0816 485.816 9.41981C485.816 8.78451 485.963 8.22201 486.254 7.73231C486.559 7.2426 486.982 6.82569 487.526 6.48157C488.066 6.13745 488.695 5.87937 489.412 5.70731C490.14 5.53525 490.919 5.44922 491.754 5.44922C492.654 5.44922 493.467 5.54848 494.195 5.74701C494.937 5.93231 495.599 6.21025 496.18 6.58084C496.776 6.93819 497.279 7.38157 497.691 7.91098L496.676 9.06245C496.279 8.59922 495.824 8.20878 495.309 7.89113C494.805 7.56025 494.25 7.30878 493.64 7.13672C493.044 6.96466 492.408 6.87863 491.735 6.87863C490.941 6.87863 490.224 6.9779 489.588 7.17643C488.956 7.37495 488.445 7.64628 488.062 7.9904C487.691 8.33451 487.504 8.75142 487.504 9.24113C487.504 9.69113 487.632 10.0617 487.882 10.3529C488.132 10.6441 488.478 10.8757 488.915 11.0477C489.364 11.2198 489.882 11.3588 490.463 11.4647C491.044 11.5573 491.673 11.65 492.349 11.7426C493.051 11.822 493.746 11.9279 494.434 12.0602C495.136 12.1926 495.776 12.3845 496.36 12.636C496.941 12.8742 497.404 13.2117 497.75 13.6485C498.107 14.0852 498.287 14.6742 498.287 15.4154C498.287 16.2625 498.022 17.0102 497.493 17.6588C496.963 18.2941 496.213 18.7904 495.246 19.1477C494.294 19.5051 493.162 19.6838 491.853 19.6838Z" fill="#626262"/>
</svg>
