<svg width="1414" height="68" viewBox="0 0 1414 68" fill="none" xmlns="http://www.w3.org/2000/svg">
<mask id="mask0_120_132" style="mask-type:alpha" maskUnits="userSpaceOnUse" x="50" y="0" width="50" height="68">
<path d="M66 68L50 68L50 0H99.6055L66 68Z" fill="#D9D9D9"/>
</mask>
<g mask="url(#mask0_120_132)">
<rect x="55" y="4.44904" width="47.8272" height="13.3084" fill="#626262"/>
<rect x="55" y="27.3229" width="44.5001" height="12.4767" fill="#626262"/>
</g>
<circle cx="63.3178" cy="57.6828" r="8.31778" fill="#626262"/>
<mask id="mask1_120_132" style="mask-type:alpha" maskUnits="userSpaceOnUse" x="103" y="0" width="53" height="68">
<path d="M137.5 0L155.605 0V68H103.895L137.5 0Z" fill="#D9D9D9"/>
</mask>
<g mask="url(#mask1_120_132)">
<path d="M113.394 4.44904H154.547V17.7575L106.998 17.5181L113.394 4.44904Z" fill="#626262"/>
<rect x="106.72" y="49.4956" width="47.8272" height="13.3084" fill="#626262"/>
<rect x="106.72" y="27.3229" width="44.5001" height="12.4767" fill="#626262"/>
</g>
<path d="M76.1328 67.7501L109.607 0H127.306L93.9913 67.7501H76.1328Z" fill="#626262"/>
<path d="M198.433 53V15.2H220.519C222.751 15.2 224.785 15.722 226.621 16.766C228.493 17.774 229.987 19.16 231.103 20.924C232.219 22.688 232.777 24.65 232.777 26.81C232.777 29.078 232.165 31.148 230.941 33.02C229.717 34.856 228.097 36.332 226.081 37.448C224.065 38.528 221.851 39.068 219.439 39.068H204.265V53H198.433ZM204.265 33.452H218.899C220.267 33.452 221.527 33.146 222.679 32.534C223.867 31.922 224.803 31.112 225.487 30.104C226.207 29.096 226.567 27.998 226.567 26.81C226.567 25.694 226.207 24.686 225.487 23.786C224.803 22.886 223.867 22.166 222.679 21.626C221.527 21.086 220.267 20.816 218.899 20.816H204.265V33.452ZM250.334 53V47.222H260.216V20.978H250.334V15.2H275.93V20.978H266.048V47.222H275.93V53H250.334ZM308.574 53L291.132 15.2H297.72L307.818 37.718C308.034 38.222 308.376 38.96 308.844 39.932C309.312 40.868 309.816 41.93 310.356 43.118C310.896 44.306 311.418 45.476 311.922 46.628C312.426 47.78 312.822 48.806 313.11 49.706L311.382 49.76C311.778 48.68 312.282 47.42 312.894 45.98C313.542 44.504 314.172 43.046 314.784 41.606C315.432 40.13 315.972 38.87 316.404 37.826L325.746 15.2H332.604L315.594 53H308.574ZM365.699 53.54C362.351 53.54 359.291 53.054 356.519 52.082C353.747 51.074 351.335 49.688 349.283 47.924C347.231 46.124 345.647 44.054 344.531 41.714C343.415 39.338 342.857 36.8 342.857 34.1C342.857 31.4 343.415 28.88 344.531 26.54C345.647 24.164 347.231 22.094 349.283 20.33C351.335 18.53 353.747 17.144 356.519 16.172C359.291 15.164 362.351 14.66 365.699 14.66C369.011 14.66 372.053 15.164 374.825 16.172C377.597 17.144 380.009 18.53 382.061 20.33C384.113 22.094 385.697 24.164 386.813 26.54C387.965 28.88 388.541 31.4 388.541 34.1C388.541 36.8 387.965 39.338 386.813 41.714C385.697 44.054 384.113 46.124 382.061 47.924C380.009 49.688 377.597 51.074 374.825 52.082C372.053 53.054 369.011 53.54 365.699 53.54ZM365.699 47.87C368.183 47.87 370.451 47.528 372.503 46.844C374.555 46.124 376.337 45.152 377.849 43.928C379.361 42.668 380.531 41.21 381.359 39.554C382.187 37.862 382.601 36.044 382.601 34.1C382.601 32.156 382.187 30.356 381.359 28.7C380.531 27.008 379.361 25.55 377.849 24.326C376.337 23.066 374.555 22.094 372.503 21.41C370.451 20.69 368.183 20.33 365.699 20.33C363.215 20.33 360.929 20.69 358.841 21.41C356.789 22.094 355.007 23.066 353.495 24.326C351.983 25.55 350.813 27.008 349.985 28.7C349.193 30.356 348.797 32.156 348.797 34.1C348.797 36.044 349.193 37.862 349.985 39.554C350.813 41.21 351.983 42.668 353.495 43.928C355.007 45.152 356.789 46.124 358.841 46.844C360.929 47.528 363.215 47.87 365.699 47.87ZM413.559 53V20.816H399.195V15.2H434.079V20.816H419.391V53H413.559ZM441.741 53L460.209 15.2H467.013L485.373 53H478.947L466.257 26.972C465.933 26.288 465.609 25.622 465.285 24.974C464.961 24.326 464.637 23.678 464.313 23.03C464.025 22.382 463.737 21.698 463.449 20.978C463.161 20.258 462.873 19.466 462.585 18.602L464.313 18.548C463.989 19.412 463.665 20.222 463.341 20.978C463.053 21.734 462.747 22.454 462.423 23.138C462.099 23.822 461.775 24.506 461.451 25.19C461.127 25.838 460.803 26.504 460.479 27.188L447.897 53H441.741ZM449.787 44.144L452.109 38.528H474.519L475.437 44.144H449.787ZM500.18 53V15.2H506.012V47.384H531.284V53H500.18Z" fill="#626262"/>
<path d="M618.246 53.5013V14.2938H654.158V23.4236H628.76V44.3716H654.988V53.5013H618.246ZM624.001 37.9304V29.3047H651.944V37.9304H624.001Z" fill="#626262"/>
<path d="M700.459 53.5013L685.076 35.8019L665.876 14.2938H679.654L694.428 31.2651L714.293 53.5013H700.459ZM665.599 53.5013L684.025 32.1613L693.044 36.5861L679.045 53.5013H665.599ZM695.756 35.2979L686.847 31.041L700.183 14.2938H713.684L695.756 35.2979Z" fill="#626262"/>
<path d="M726.59 53.5013V14.2938H762.501V23.4236H737.103V44.3716H763.331V53.5013H726.59ZM732.344 37.9304V29.3047H760.288V37.9304H732.344Z" fill="#626262"/>
<path d="M802.273 54.0614C798.806 54.0614 795.578 53.576 792.59 52.6052C789.602 51.6343 786.983 50.2527 784.732 48.4604C782.482 46.668 780.73 44.5209 779.476 42.0191C778.222 39.5173 777.594 36.7355 777.594 33.6735C777.594 30.649 778.222 27.8858 779.476 25.384C780.767 22.8821 782.519 20.7351 784.732 18.9427C786.946 17.1504 789.528 15.7688 792.479 14.7979C795.467 13.7897 798.676 13.2856 802.107 13.2856C804.579 13.2856 806.94 13.547 809.19 14.0698C811.44 14.5926 813.543 15.302 815.498 16.1982C817.453 17.057 819.131 18.0466 820.533 19.1668L814.391 27.7924C813.506 27.0456 812.454 26.3361 811.237 25.664C810.02 24.9545 808.618 24.3944 807.032 23.9837C805.446 23.5356 803.601 23.3116 801.498 23.3116C799.949 23.3116 798.437 23.5356 796.961 23.9837C795.486 24.3944 794.121 25.0479 792.866 25.9441C791.649 26.8029 790.672 27.8858 789.934 29.1927C789.233 30.4996 788.882 32.0306 788.882 33.7856C788.882 35.5406 789.27 37.0715 790.044 38.3784C790.819 39.6854 791.87 40.7682 793.198 41.6271C794.563 42.4859 796.076 43.1393 797.736 43.5874C799.396 43.9982 801.111 44.2036 802.882 44.2036C804.984 44.2036 806.829 43.9235 808.415 43.3634C810.001 42.7659 811.385 42.0751 812.565 41.291C813.746 40.5068 814.797 39.7974 815.719 39.1626L820.81 47.6202C819.703 48.5164 818.191 49.4686 816.273 50.4768C814.391 51.4849 812.252 52.3438 809.854 53.0532C807.456 53.7254 804.929 54.0614 802.273 54.0614Z" fill="#626262"/>
<path d="M844.304 59.4369C849.613 56.37 854.589 50.9951 857.223 46.962C859.857 42.9288 861.174 38.5806 861.174 33.9173C861.174 29.254 859.857 24.9058 857.223 20.8726C854.589 16.8395 849.613 11.3018 844.304 8.23492M589.476 59.7651C584.167 56.6982 579.191 51.3233 576.557 47.2902C573.922 43.2571 572.605 38.9088 572.605 34.2455C572.605 29.5822 573.922 25.234 576.557 21.2008C579.191 17.1677 584.167 11.63 589.476 8.56314" stroke="#626262" stroke-width="5"/>
<path d="M919.446 53.54C916.926 53.54 914.568 53.27 912.372 52.73C910.176 52.19 908.142 51.398 906.27 50.354C904.398 49.274 902.706 47.924 901.194 46.304L903.786 42.794C906.054 45.17 908.484 46.898 911.076 47.978C913.668 49.058 916.458 49.598 919.446 49.598C921.822 49.598 923.982 49.328 925.926 48.788C927.87 48.212 929.436 47.366 930.624 46.25C931.812 45.134 932.388 43.784 932.352 42.2C932.352 41.12 932.028 40.238 931.38 39.554C930.732 38.87 929.886 38.312 928.842 37.88C927.834 37.448 926.718 37.124 925.494 36.908C924.27 36.656 923.1 36.476 921.984 36.368C920.868 36.224 919.896 36.098 919.068 35.99C916.872 35.666 914.802 35.288 912.858 34.856C910.914 34.424 909.204 33.83 907.728 33.074C906.252 32.318 905.1 31.346 904.272 30.158C903.444 28.934 903.03 27.422 903.03 25.622C903.03 23.894 903.426 22.364 904.218 21.032C905.046 19.7 906.198 18.566 907.674 17.63C909.15 16.694 910.86 15.992 912.804 15.524C914.784 15.056 916.908 14.822 919.176 14.822C921.624 14.822 923.838 15.092 925.818 15.632C927.834 16.136 929.634 16.892 931.218 17.9C932.838 18.872 934.206 20.078 935.322 21.518L932.568 24.65C931.488 23.39 930.246 22.328 928.842 21.464C927.474 20.564 925.962 19.88 924.306 19.412C922.686 18.944 920.958 18.71 919.122 18.71C916.962 18.71 915.018 18.98 913.29 19.52C911.562 20.06 910.176 20.798 909.132 21.734C908.124 22.67 907.62 23.804 907.62 25.136C907.62 26.36 907.962 27.368 908.646 28.16C909.33 28.952 910.266 29.582 911.454 30.05C912.678 30.518 914.082 30.896 915.666 31.184C917.25 31.436 918.96 31.688 920.796 31.94C922.704 32.156 924.594 32.444 926.466 32.804C928.374 33.164 930.12 33.686 931.704 34.37C933.288 35.018 934.548 35.936 935.484 37.124C936.456 38.312 936.942 39.914 936.942 41.93C936.942 44.234 936.222 46.268 934.782 48.032C933.342 49.76 931.308 51.11 928.68 52.082C926.088 53.054 923.01 53.54 919.446 53.54ZM973.605 53.54C970.257 53.54 967.179 53.054 964.371 52.082C961.599 51.074 959.187 49.706 957.135 47.978C955.119 46.214 953.553 44.162 952.437 41.822C951.321 39.446 950.763 36.908 950.763 34.208C950.763 31.472 951.321 28.934 952.437 26.594C953.553 24.254 955.119 22.202 957.135 20.438C959.187 18.638 961.599 17.252 964.371 16.28C967.179 15.308 970.257 14.822 973.605 14.822C976.953 14.822 980.013 15.308 982.785 16.28C985.557 17.252 987.969 18.62 990.021 20.384C992.073 22.148 993.657 24.218 994.773 26.594C995.925 28.934 996.501 31.472 996.501 34.208C996.501 36.908 995.925 39.446 994.773 41.822C993.657 44.162 992.073 46.214 990.021 47.978C987.969 49.742 985.557 51.11 982.785 52.082C980.013 53.054 976.953 53.54 973.605 53.54ZM973.605 49.382C976.305 49.382 978.789 49.004 981.057 48.248C983.325 47.492 985.287 46.43 986.943 45.062C988.599 43.658 989.877 42.038 990.777 40.202C991.677 38.366 992.127 36.368 992.127 34.208C992.127 32.048 991.677 30.032 990.777 28.16C989.877 26.288 988.599 24.668 986.943 23.3C985.287 21.932 983.325 20.87 981.057 20.114C978.789 19.322 976.305 18.926 973.605 18.926C970.869 18.926 968.367 19.322 966.099 20.114C963.831 20.87 961.869 21.932 960.213 23.3C958.593 24.668 957.333 26.288 956.433 28.16C955.569 30.032 955.137 32.048 955.137 34.208C955.137 36.368 955.569 38.366 956.433 40.202C957.333 42.038 958.593 43.658 960.213 45.062C961.869 46.43 963.831 47.492 966.099 48.248C968.367 49.004 970.869 49.382 973.605 49.382ZM1013.59 53V15.2H1017.8V48.896H1043.51V53H1013.59ZM1076.67 53.378C1072.92 53.378 1069.66 52.586 1066.89 51.002C1064.12 49.382 1061.96 47.186 1060.41 44.414C1058.86 41.642 1058.09 38.474 1058.09 34.91V15.2H1062.3V34.748C1062.3 37.556 1062.93 40.058 1064.19 42.254C1065.45 44.414 1067.16 46.106 1069.32 47.33C1071.52 48.554 1073.97 49.166 1076.67 49.166C1079.55 49.166 1082.08 48.554 1084.28 47.33C1086.48 46.106 1088.19 44.414 1089.41 42.254C1090.67 40.058 1091.3 37.556 1091.3 34.748V15.2H1095.35V34.964C1095.35 38.492 1094.58 41.642 1093.03 44.414C1091.48 47.186 1089.3 49.382 1086.49 51.002C1083.72 52.586 1080.45 53.378 1076.67 53.378ZM1124.82 53V19.304H1110.24V15.2H1144.05V19.304H1129.03V53H1124.82ZM1159.3 53V48.734H1169.18V19.466H1159.3V15.2H1183.27V19.466H1173.39V48.734H1183.27V53H1159.3ZM1222.46 53.54C1219.11 53.54 1216.03 53.054 1213.22 52.082C1210.45 51.074 1208.04 49.706 1205.99 47.978C1203.97 46.214 1202.41 44.162 1201.29 41.822C1200.17 39.446 1199.62 36.908 1199.62 34.208C1199.62 31.472 1200.17 28.934 1201.29 26.594C1202.41 24.254 1203.97 22.202 1205.99 20.438C1208.04 18.638 1210.45 17.252 1213.22 16.28C1216.03 15.308 1219.11 14.822 1222.46 14.822C1225.81 14.822 1228.87 15.308 1231.64 16.28C1234.41 17.252 1236.82 18.62 1238.87 20.384C1240.93 22.148 1242.51 24.218 1243.63 26.594C1244.78 28.934 1245.35 31.472 1245.35 34.208C1245.35 36.908 1244.78 39.446 1243.63 41.822C1242.51 44.162 1240.93 46.214 1238.87 47.978C1236.82 49.742 1234.41 51.11 1231.64 52.082C1228.87 53.054 1225.81 53.54 1222.46 53.54ZM1222.46 49.382C1225.16 49.382 1227.64 49.004 1229.91 48.248C1232.18 47.492 1234.14 46.43 1235.8 45.062C1237.45 43.658 1238.73 42.038 1239.63 40.202C1240.53 38.366 1240.98 36.368 1240.98 34.208C1240.98 32.048 1240.53 30.032 1239.63 28.16C1238.73 26.288 1237.45 24.668 1235.8 23.3C1234.14 21.932 1232.18 20.87 1229.91 20.114C1227.64 19.322 1225.16 18.926 1222.46 18.926C1219.72 18.926 1217.22 19.322 1214.95 20.114C1212.68 20.87 1210.72 21.932 1209.07 23.3C1207.45 24.668 1206.19 26.288 1205.29 28.16C1204.42 30.032 1203.99 32.048 1203.99 34.208C1203.99 36.368 1204.42 38.366 1205.29 40.202C1206.19 42.038 1207.45 43.658 1209.07 45.062C1210.72 46.43 1212.68 47.492 1214.95 48.248C1217.22 49.004 1219.72 49.382 1222.46 49.382ZM1262.44 53V15.2H1266.76L1299.27 48.194L1298.89 49.166C1298.75 48.338 1298.64 47.222 1298.57 45.818C1298.53 44.378 1298.48 42.83 1298.41 41.174C1298.37 39.518 1298.34 37.88 1298.3 36.26C1298.3 34.64 1298.28 33.2 1298.25 31.94C1298.25 30.644 1298.25 29.69 1298.25 29.078V15.2H1302.46V53H1297.98L1265.79 20.708L1265.9 19.574C1265.94 20.042 1265.97 20.762 1266.01 21.734C1266.08 22.67 1266.15 23.768 1266.22 25.028C1266.3 26.252 1266.37 27.53 1266.44 28.862C1266.51 30.194 1266.57 31.472 1266.6 32.696C1266.64 33.92 1266.66 34.964 1266.66 35.828V53H1262.44ZM1337.84 53.54C1335.32 53.54 1332.96 53.27 1330.77 52.73C1328.57 52.19 1326.54 51.398 1324.66 50.354C1322.79 49.274 1321.1 47.924 1319.59 46.304L1322.18 42.794C1324.45 45.17 1326.88 46.898 1329.47 47.978C1332.06 49.058 1334.85 49.598 1337.84 49.598C1340.22 49.598 1342.38 49.328 1344.32 48.788C1346.26 48.212 1347.83 47.366 1349.02 46.25C1350.21 45.134 1350.78 43.784 1350.75 42.2C1350.75 41.12 1350.42 40.238 1349.77 39.554C1349.13 38.87 1348.28 38.312 1347.24 37.88C1346.23 37.448 1345.11 37.124 1343.89 36.908C1342.66 36.656 1341.49 36.476 1340.38 36.368C1339.26 36.224 1338.29 36.098 1337.46 35.99C1335.27 35.666 1333.2 35.288 1331.25 34.856C1329.31 34.424 1327.6 33.83 1326.12 33.074C1324.65 32.318 1323.49 31.346 1322.67 30.158C1321.84 28.934 1321.42 27.422 1321.42 25.622C1321.42 23.894 1321.82 22.364 1322.61 21.032C1323.44 19.7 1324.59 18.566 1326.07 17.63C1327.54 16.694 1329.25 15.992 1331.2 15.524C1333.18 15.056 1335.3 14.822 1337.57 14.822C1340.02 14.822 1342.23 15.092 1344.21 15.632C1346.23 16.136 1348.03 16.892 1349.61 17.9C1351.23 18.872 1352.6 20.078 1353.72 21.518L1350.96 24.65C1349.88 23.39 1348.64 22.328 1347.24 21.464C1345.87 20.564 1344.36 19.88 1342.7 19.412C1341.08 18.944 1339.35 18.71 1337.52 18.71C1335.36 18.71 1333.41 18.98 1331.68 19.52C1329.96 20.06 1328.57 20.798 1327.53 21.734C1326.52 22.67 1326.01 23.804 1326.01 25.136C1326.01 26.36 1326.36 27.368 1327.04 28.16C1327.72 28.952 1328.66 29.582 1329.85 30.05C1331.07 30.518 1332.48 30.896 1334.06 31.184C1335.64 31.436 1337.35 31.688 1339.19 31.94C1341.1 32.156 1342.99 32.444 1344.86 32.804C1346.77 33.164 1348.51 33.686 1350.1 34.37C1351.68 35.018 1352.94 35.936 1353.88 37.124C1354.85 38.312 1355.34 39.914 1355.34 41.93C1355.34 44.234 1354.62 46.268 1353.18 48.032C1351.74 49.76 1349.7 51.11 1347.07 52.082C1344.48 53.054 1341.4 53.54 1337.84 53.54Z" fill="#626262"/>
</svg>
