<svg width="500" height="130" viewBox="0 0 500 130" fill="none" xmlns="http://www.w3.org/2000/svg">
<g clip-path="url(#clip0_136_262)">
<path d="M228.497 47.7877C228.497 52.0763 225.031 55.5425 220.743 55.5425C216.454 55.5425 212.988 52.0763 212.988 47.7877C212.988 43.499 216.454 40.0328 220.743 40.0328H228.497V47.7877ZM232.375 47.7877C232.375 43.499 235.841 40.0328 240.13 40.0328C244.418 40.0328 247.885 43.499 247.885 47.7877V67.1748C247.885 71.4635 244.418 74.9296 240.13 74.9296C235.841 74.9296 232.375 71.4635 232.375 67.1748V47.7877Z" fill="#E01E5A"/>
<path d="M240.129 16.6508C235.841 16.6508 232.375 13.1846 232.375 8.89596C232.375 4.60729 235.841 1.14111 240.129 1.14111C244.418 1.14111 247.884 4.60729 247.884 8.89596V16.6508H240.129ZM240.129 20.587C244.418 20.587 247.884 24.0532 247.884 28.3418C247.884 32.6305 244.418 36.0967 240.129 36.0967H220.684C216.395 36.0967 212.929 32.6305 212.929 28.3418C212.929 24.0532 216.395 20.587 220.684 20.587H240.129Z" fill="#36C5F0"/>
<path d="M271.207 28.3418C271.207 24.0532 274.674 20.587 278.962 20.587C283.251 20.587 286.717 24.0532 286.717 28.3418C286.717 32.6305 283.251 36.0967 278.962 36.0967H271.207V28.3418ZM267.33 28.3418C267.33 32.6305 263.864 36.0967 259.575 36.0967C255.286 36.0967 251.82 32.6305 251.82 28.3418V8.89596C251.82 4.60729 255.286 1.14111 259.575 1.14111C263.864 1.14111 267.33 4.60729 267.33 8.89596V28.3418Z" fill="#2EB67D"/>
<path d="M259.575 59.42C263.864 59.42 267.33 62.8861 267.33 67.1748C267.33 71.4635 263.864 74.9296 259.575 74.9296C255.286 74.9296 251.82 71.4635 251.82 67.1748V59.42H259.575ZM259.575 55.5425C255.286 55.5425 251.82 52.0763 251.82 47.7877C251.82 43.499 255.286 40.0328 259.575 40.0328H279.021C283.31 40.0328 286.776 43.499 286.776 47.7877C286.776 52.0763 283.31 55.5425 279.021 55.5425H259.575Z" fill="#ECB22E"/>
</g>
<g clip-path="url(#clip1_136_262)">
<mask id="mask0_136_262" style="mask-type:alpha" maskUnits="userSpaceOnUse" x="16" y="105" width="19" height="25">
<path d="M22.46 129.855H16.8022V105.81H34.3431L22.46 129.855Z" fill="black"/>
</mask>
<g mask="url(#mask0_136_262)">
<path d="M35.4823 107.383H18.5703V112.089H35.4823V107.383Z" fill="black"/>
<path d="M34.3058 115.471H18.5703V119.883H34.3058V115.471Z" fill="black"/>
</g>
<path d="M21.5115 129.148C23.1359 129.148 24.4528 127.831 24.4528 126.207C24.4528 124.582 23.1359 123.266 21.5115 123.266C19.8871 123.266 18.5703 124.582 18.5703 126.207C18.5703 127.831 19.8871 129.148 21.5115 129.148Z" fill="black"/>
<mask id="mask1_136_262" style="mask-type:alpha" maskUnits="userSpaceOnUse" x="35" y="105" width="20" height="25">
<path d="M47.7428 105.81H54.1449V129.855H35.8599L47.7428 105.81Z" fill="#0500FF"/>
</mask>
<g mask="url(#mask1_136_262)">
<path d="M39.2192 107.383H53.7712V112.089L36.9575 112.004L39.2192 107.383Z" fill="#0500FF"/>
<path d="M53.7709 123.312H36.8589V128.018H53.7709V123.312Z" fill="#0500FF"/>
<path d="M52.5944 115.471H36.8589V119.883H52.5944V115.471Z" fill="#0500FF"/>
</g>
<path d="M26.043 129.767L37.88 105.81H44.1381L32.3579 129.767H26.043Z" fill="black"/>
<path d="M69.2891 124.551V111.185H77.0988C77.8881 111.185 78.6073 111.369 79.2565 111.738C79.9185 112.095 80.4468 112.585 80.8414 113.209C81.236 113.832 81.4333 114.526 81.4333 115.29C81.4333 116.092 81.2169 116.824 80.7841 117.486C80.3513 118.135 79.7785 118.657 79.0656 119.052C78.3527 119.434 77.5698 119.624 76.7169 119.624H71.3513V124.551H69.2891ZM71.3513 117.639H76.526C77.0097 117.639 77.4553 117.53 77.8626 117.314C78.2827 117.098 78.6137 116.811 78.8555 116.455C79.1101 116.098 79.2374 115.71 79.2374 115.29C79.2374 114.895 79.1101 114.539 78.8555 114.221C78.6137 113.902 78.2827 113.648 77.8626 113.457C77.4553 113.266 77.0097 113.17 76.526 113.17H71.3513V117.639ZM87.6416 124.551V122.508H91.136V113.228H87.6416V111.185H96.6925V113.228H93.1982V122.508H96.6925V124.551H87.6416ZM108.236 124.551L102.068 111.185H104.398L107.968 119.147C108.045 119.325 108.166 119.586 108.331 119.93C108.497 120.261 108.675 120.637 108.866 121.057C109.057 121.477 109.241 121.89 109.42 122.298C109.598 122.705 109.738 123.068 109.84 123.386L109.229 123.405C109.369 123.023 109.547 122.578 109.763 122.069C109.992 121.547 110.215 121.031 110.432 120.522C110.661 120 110.852 119.554 111.004 119.185L114.308 111.185H116.733L110.718 124.551H108.236ZM128.435 124.742C127.252 124.742 126.17 124.57 125.189 124.226C124.209 123.87 123.356 123.38 122.631 122.756C121.905 122.12 121.345 121.388 120.95 120.56C120.556 119.72 120.358 118.823 120.358 117.868C120.358 116.913 120.556 116.022 120.95 115.195C121.345 114.354 121.905 113.622 122.631 112.999C123.356 112.362 124.209 111.872 125.189 111.528C126.17 111.172 127.252 110.994 128.435 110.994C129.607 110.994 130.682 111.172 131.662 111.528C132.643 111.872 133.496 112.362 134.221 112.999C134.947 113.622 135.507 114.354 135.902 115.195C136.309 116.022 136.513 116.913 136.513 117.868C136.513 118.823 136.309 119.72 135.902 120.56C135.507 121.388 134.947 122.12 134.221 122.756C133.496 123.38 132.643 123.87 131.662 124.226C130.682 124.57 129.607 124.742 128.435 124.742ZM128.435 122.737C129.314 122.737 130.116 122.616 130.841 122.374C131.567 122.12 132.197 121.776 132.732 121.343C133.266 120.897 133.68 120.382 133.973 119.796C134.266 119.198 134.412 118.555 134.412 117.868C134.412 117.18 134.266 116.544 133.973 115.958C133.68 115.36 133.266 114.844 132.732 114.412C132.197 113.966 131.567 113.622 130.841 113.38C130.116 113.126 129.314 112.999 128.435 112.999C127.557 112.999 126.749 113.126 126.01 113.38C125.285 113.622 124.655 113.966 124.12 114.412C123.585 114.844 123.172 115.36 122.879 115.958C122.599 116.544 122.459 117.18 122.459 117.868C122.459 118.555 122.599 119.198 122.879 119.796C123.172 120.382 123.585 120.897 124.12 121.343C124.655 121.776 125.285 122.12 126.01 122.374C126.749 122.616 127.557 122.737 128.435 122.737ZM145.359 124.551V113.17H140.28V111.185H152.615V113.17H147.421V124.551H145.359ZM155.324 124.551L161.855 111.185H164.261L170.753 124.551H168.481L163.993 115.347C163.879 115.105 163.764 114.87 163.65 114.641C163.535 114.412 163.421 114.182 163.306 113.953C163.204 113.724 163.102 113.482 163.001 113.228C162.899 112.973 162.797 112.693 162.695 112.388L163.306 112.368C163.191 112.674 163.077 112.96 162.962 113.228C162.86 113.495 162.752 113.75 162.638 113.992C162.523 114.233 162.409 114.475 162.294 114.717C162.179 114.946 162.065 115.182 161.95 115.424L157.501 124.551H155.324ZM158.17 121.419L158.991 119.434H166.915L167.24 121.419H158.17ZM175.988 124.551V111.185H178.051V122.565H186.987V124.551H175.988Z" fill="black"/>
<path d="M218.666 124.728V110.864H231.364V114.092H222.383V121.5H231.658V124.728H218.666ZM220.701 119.222V116.172H230.581V119.222H220.701Z" fill="#0500FF"/>
<path d="M247.736 124.728L242.297 118.47L235.508 110.864H240.38L245.604 116.865L252.628 124.728H247.736ZM235.41 124.728L241.925 117.182L245.115 118.747L240.164 124.728H235.41ZM246.073 118.291L242.923 116.786L247.639 110.864H252.413L246.073 118.291Z" fill="#0500FF"/>
<path d="M256.977 124.728V110.864H269.675V114.092H260.694V121.5H269.968V124.728H256.977ZM259.011 119.222V116.172H268.892V119.222H259.011Z" fill="#0500FF"/>
<path d="M283.739 124.926C282.513 124.926 281.371 124.755 280.315 124.411C279.258 124.068 278.332 123.58 277.536 122.946C276.741 122.312 276.121 121.553 275.678 120.668C275.234 119.783 275.012 118.8 275.012 117.717C275.012 116.647 275.234 115.67 275.678 114.786C276.134 113.901 276.754 113.142 277.536 112.508C278.319 111.874 279.232 111.386 280.276 111.042C281.332 110.686 282.467 110.508 283.68 110.508C284.554 110.508 285.389 110.6 286.185 110.785C286.98 110.97 287.724 111.221 288.415 111.538C289.107 111.841 289.7 112.191 290.196 112.587L288.024 115.637C287.711 115.373 287.339 115.122 286.909 114.885C286.478 114.634 285.982 114.436 285.422 114.291C284.861 114.132 284.208 114.053 283.465 114.053C282.917 114.053 282.382 114.132 281.861 114.291C281.339 114.436 280.856 114.667 280.412 114.984C279.982 115.287 279.637 115.67 279.376 116.133C279.128 116.595 279.004 117.136 279.004 117.757C279.004 118.377 279.141 118.919 279.415 119.381C279.689 119.843 280.06 120.226 280.53 120.529C281.013 120.833 281.548 121.064 282.135 121.223C282.722 121.368 283.328 121.44 283.954 121.44C284.697 121.44 285.35 121.341 285.911 121.143C286.472 120.932 286.961 120.688 287.378 120.411C287.796 120.133 288.167 119.882 288.493 119.658L290.294 122.649C289.902 122.966 289.368 123.302 288.689 123.659C288.024 124.015 287.268 124.319 286.42 124.57C285.572 124.807 284.678 124.926 283.739 124.926Z" fill="#0500FF"/>
<path d="M208.854 109.7L207.97 108.108C207.97 108.108 205.823 109.493 204.081 111.644C202.721 113.324 201.685 115.541 201.605 117.479C201.529 119.345 202.158 121.405 203.373 123.137C205.226 125.775 207.97 127.733 207.97 127.733L208.854 126.142C208.854 126.142 206.397 124.548 204.788 122.253C203.786 120.823 203.297 119.013 203.373 117.479C203.451 115.921 204.209 114.238 205.318 112.882C206.852 111.007 208.854 109.7 208.854 109.7Z" fill="black"/>
<path d="M298.14 125.965L299.024 127.557C299.024 127.557 301.172 126.172 302.914 124.021C304.274 122.341 305.309 120.124 305.389 118.186C305.466 116.32 304.836 114.26 303.621 112.528C301.769 109.89 299.024 107.931 299.024 107.931L298.14 109.523C298.14 109.523 300.598 111.117 302.207 113.412C303.209 114.842 303.697 116.651 303.621 118.186C303.544 119.744 302.785 121.427 301.676 122.783C300.143 124.658 298.14 125.965 298.14 125.965Z" fill="black"/>
<path d="M326 124.742C325.109 124.742 324.276 124.646 323.499 124.456C322.722 124.265 322.003 123.985 321.341 123.615C320.679 123.233 320.081 122.756 319.546 122.183L320.463 120.942C321.265 121.782 322.124 122.393 323.041 122.775C323.957 123.157 324.944 123.348 326 123.348C326.841 123.348 327.604 123.253 328.292 123.062C328.979 122.858 329.533 122.559 329.953 122.164C330.373 121.77 330.577 121.292 330.564 120.732C330.564 120.35 330.449 120.038 330.22 119.796C329.991 119.555 329.692 119.357 329.323 119.204C328.966 119.052 328.572 118.937 328.139 118.861C327.706 118.772 327.292 118.708 326.898 118.67C326.503 118.619 326.16 118.574 325.867 118.536C325.09 118.422 324.358 118.288 323.671 118.135C322.983 117.982 322.379 117.772 321.857 117.505C321.335 117.238 320.928 116.894 320.635 116.474C320.342 116.041 320.196 115.506 320.196 114.87C320.196 114.259 320.336 113.718 320.616 113.247C320.908 112.776 321.316 112.375 321.838 112.044C322.36 111.713 322.964 111.465 323.652 111.299C324.352 111.134 325.103 111.051 325.905 111.051C326.771 111.051 327.553 111.146 328.254 111.337C328.966 111.516 329.603 111.783 330.163 112.139C330.736 112.483 331.22 112.91 331.614 113.419L330.64 114.526C330.259 114.081 329.819 113.705 329.323 113.4C328.839 113.081 328.305 112.84 327.719 112.674C327.146 112.509 326.535 112.426 325.886 112.426C325.122 112.426 324.435 112.521 323.824 112.712C323.213 112.903 322.722 113.164 322.353 113.495C321.997 113.826 321.819 114.227 321.819 114.698C321.819 115.131 321.94 115.487 322.181 115.767C322.423 116.047 322.754 116.27 323.174 116.436C323.607 116.601 324.104 116.735 324.664 116.837C325.224 116.926 325.829 117.015 326.478 117.104C327.152 117.18 327.821 117.282 328.483 117.41C329.157 117.537 329.775 117.721 330.335 117.963C330.895 118.192 331.341 118.517 331.672 118.937C332.015 119.357 332.187 119.924 332.187 120.637C332.187 121.451 331.933 122.171 331.423 122.794C330.914 123.405 330.195 123.883 329.266 124.226C328.349 124.57 327.261 124.742 326 124.742ZM345.152 124.742C343.968 124.742 342.879 124.57 341.887 124.226C340.906 123.87 340.053 123.386 339.328 122.775C338.615 122.151 338.061 121.426 337.667 120.598C337.272 119.758 337.075 118.861 337.075 117.906C337.075 116.939 337.272 116.041 337.667 115.214C338.061 114.386 338.615 113.661 339.328 113.037C340.053 112.4 340.906 111.91 341.887 111.567C342.879 111.223 343.968 111.051 345.152 111.051C346.336 111.051 347.418 111.223 348.398 111.567C349.378 111.91 350.231 112.394 350.957 113.018C351.682 113.642 352.242 114.374 352.637 115.214C353.044 116.041 353.248 116.939 353.248 117.906C353.248 118.861 353.044 119.758 352.637 120.598C352.242 121.426 351.682 122.151 350.957 122.775C350.231 123.399 349.378 123.883 348.398 124.226C347.418 124.57 346.336 124.742 345.152 124.742ZM345.152 123.272C346.106 123.272 346.985 123.138 347.787 122.871C348.589 122.603 349.283 122.228 349.868 121.744C350.454 121.248 350.906 120.675 351.224 120.026C351.542 119.376 351.701 118.67 351.701 117.906C351.701 117.142 351.542 116.429 351.224 115.767C350.906 115.105 350.454 114.533 349.868 114.049C349.283 113.565 348.589 113.19 347.787 112.922C346.985 112.642 346.106 112.502 345.152 112.502C344.184 112.502 343.3 112.642 342.498 112.922C341.696 113.19 341.002 113.565 340.416 114.049C339.843 114.533 339.398 115.105 339.08 115.767C338.774 116.429 338.621 117.142 338.621 117.906C338.621 118.67 338.774 119.376 339.08 120.026C339.398 120.675 339.843 121.248 340.416 121.744C341.002 122.228 341.696 122.603 342.498 122.871C343.3 123.138 344.184 123.272 345.152 123.272ZM359.289 124.551V111.185H360.782V123.1H369.869V124.551H359.289ZM381.595 124.685C380.269 124.685 379.12 124.405 378.137 123.845C377.157 123.272 376.393 122.495 375.845 121.515C375.301 120.535 375.025 119.415 375.025 118.154V111.185H376.514V118.097C376.514 119.09 376.736 119.975 377.182 120.751C377.627 121.515 378.232 122.113 378.996 122.546C379.774 122.979 380.64 123.195 381.595 123.195C382.613 123.195 383.511 122.979 384.286 122.546C385.064 122.113 385.668 121.515 386.1 120.751C386.545 119.975 386.768 119.09 386.768 118.097V111.185H388.2V118.173C388.2 119.421 387.928 120.535 387.38 121.515C386.832 122.495 386.061 123.272 385.071 123.845C384.088 124.405 382.931 124.685 381.595 124.685ZM398.621 124.551V112.636H393.465V111.185H405.421V112.636H400.113V124.551H398.621ZM410.813 124.551V123.043H414.307V112.693H410.813V111.185H419.293V112.693H415.796V123.043H419.293V124.551H410.813ZM433.147 124.742C431.963 124.742 430.877 124.57 429.883 124.226C428.904 123.87 428.048 123.386 427.323 122.775C426.613 122.151 426.057 121.426 425.661 120.598C425.269 119.758 425.071 118.861 425.071 117.906C425.071 116.939 425.269 116.041 425.661 115.214C426.057 114.386 426.613 113.661 427.323 113.037C428.048 112.4 428.904 111.91 429.883 111.567C430.877 111.223 431.963 111.051 433.147 111.051C434.332 111.051 435.414 111.223 436.393 111.567C437.373 111.91 438.228 112.394 438.953 113.018C439.678 113.642 440.237 114.374 440.633 115.214C441.04 116.041 441.245 116.939 441.245 117.906C441.245 118.861 441.04 119.758 440.633 120.598C440.237 121.426 439.678 122.151 438.953 122.775C438.228 123.399 437.373 123.883 436.393 124.226C435.414 124.57 434.332 124.742 433.147 124.742ZM433.147 123.272C434.102 123.272 434.982 123.138 435.782 122.871C436.584 122.603 437.277 122.228 437.864 121.744C438.451 121.248 438.9 120.675 439.219 120.026C439.537 119.376 439.696 118.67 439.696 117.906C439.696 117.142 439.537 116.429 439.219 115.767C438.9 115.105 438.451 114.533 437.864 114.049C437.277 113.565 436.584 113.19 435.782 112.922C434.982 112.642 434.102 112.502 433.147 112.502C432.182 112.502 431.294 112.642 430.495 112.922C429.692 113.19 428.999 113.565 428.412 114.049C427.84 114.533 427.394 115.105 427.076 115.767C426.772 116.429 426.616 117.142 426.616 117.906C426.616 118.67 426.772 119.376 427.076 120.026C427.394 120.675 427.84 121.248 428.412 121.744C428.999 122.228 429.692 122.603 430.495 122.871C431.294 123.138 432.182 123.272 433.147 123.272ZM447.288 124.551V111.185H448.815L460.311 122.852L460.177 123.195C460.124 122.903 460.088 122.508 460.06 122.011C460.05 121.502 460.028 120.955 460.004 120.369C459.993 119.784 459.979 119.204 459.965 118.632C459.965 118.059 459.961 117.55 459.947 117.104C459.947 116.646 459.947 116.308 459.947 116.092V111.185H461.436V124.551H459.852L448.472 113.132L448.508 112.731C448.522 112.897 448.536 113.151 448.547 113.495C448.571 113.826 448.6 114.214 448.625 114.66C448.649 115.093 448.674 115.545 448.699 116.016C448.727 116.487 448.745 116.939 448.759 117.371C448.77 117.804 448.777 118.173 448.777 118.479V124.551H447.288ZM473.946 124.742C473.055 124.742 472.224 124.646 471.446 124.456C470.668 124.265 469.951 123.985 469.289 123.615C468.628 123.233 468.027 122.756 467.493 122.183L468.409 120.942C469.212 121.782 470.071 122.393 470.987 122.775C471.906 123.157 472.893 123.348 473.946 123.348C474.788 123.348 475.552 123.253 476.238 123.062C476.927 122.858 477.479 122.559 477.9 122.164C478.32 121.77 478.526 121.292 478.511 120.732C478.511 120.35 478.398 120.038 478.168 119.796C477.939 119.555 477.638 119.357 477.27 119.204C476.913 119.052 476.521 118.937 476.086 118.861C475.654 118.772 475.241 118.708 474.844 118.67C474.452 118.619 474.105 118.574 473.815 118.536C473.038 118.422 472.306 118.288 471.62 118.135C470.93 117.982 470.325 117.772 469.806 117.505C469.282 117.238 468.876 116.894 468.582 116.474C468.289 116.041 468.144 115.506 468.144 114.87C468.144 114.259 468.282 113.718 468.564 113.247C468.854 112.776 469.265 112.375 469.784 112.044C470.308 111.713 470.912 111.465 471.598 111.299C472.299 111.134 473.052 111.051 473.851 111.051C474.717 111.051 475.502 111.146 476.202 111.337C476.913 111.516 477.55 111.783 478.112 112.139C478.685 112.483 479.166 112.91 479.562 113.419L478.589 114.526C478.207 114.081 477.765 113.705 477.27 113.4C476.786 113.081 476.252 112.84 475.665 112.674C475.092 112.509 474.484 112.426 473.833 112.426C473.069 112.426 472.383 112.521 471.772 112.712C471.16 112.903 470.668 113.164 470.301 113.495C469.943 113.826 469.767 114.227 469.767 114.698C469.767 115.131 469.887 115.487 470.127 115.767C470.371 116.047 470.7 116.27 471.121 116.436C471.556 116.601 472.051 116.735 472.61 116.837C473.172 116.926 473.777 117.015 474.424 117.104C475.099 117.18 475.767 117.282 476.429 117.41C477.104 117.537 477.723 117.721 478.282 117.963C478.844 118.192 479.289 118.517 479.618 118.937C479.961 119.357 480.134 119.924 480.134 120.637C480.134 121.451 479.88 122.171 479.371 122.794C478.861 123.405 478.144 123.883 477.214 124.226C476.298 124.57 475.209 124.742 473.946 124.742Z" fill="black"/>
</g>
<defs>
<clipPath id="clip0_136_262">
<rect width="74.611" height="74.611" fill="white" transform="translate(212.518 0.788574)"/>
</clipPath>
<clipPath id="clip1_136_262">
<rect width="500" height="24.0453" fill="white" transform="translate(0 105.81)"/>
</clipPath>
</defs>
</svg>
